<?xml version="1.0" encoding="utf-8"?>
<!-- Generator: Adobe Illustrator 16.0.0, SVG Export Plug-In . SVG Version: 6.00 Build 0)  -->
<!DOCTYPE svg PUBLIC "-//W3C//DTD SVG 1.1//EN" "http://www.w3.org/Graphics/SVG/1.1/DTD/svg11.dtd">
<svg version="1.1" id="Layer_1" xmlns="http://www.w3.org/2000/svg" xmlns:xlink="http://www.w3.org/1999/xlink" x="0px" y="0px"
	 width="71.674px" height="69.904px" viewBox="0 0 71.674 69.904" enable-background="new 0 0 71.674 69.904" xml:space="preserve">
<path fill-rule="evenodd" clip-rule="evenodd" fill="#181616" d="M35.834,0C16.047,0,0,16.045,0,35.84
	c0,15.832,10.268,29.264,24.51,34.004c1.791,0.328,2.445-0.779,2.445-1.729c0-0.85-0.031-3.104-0.049-6.094
	c-9.969,2.164-12.07-4.805-12.07-4.805c-1.631-4.141-3.98-5.242-3.98-5.242c-3.254-2.225,0.246-2.178,0.246-2.178
	c3.598,0.252,5.49,3.691,5.49,3.691c3.197,5.477,8.387,3.896,10.43,2.979c0.324-2.316,1.25-3.895,2.275-4.791
	c-7.959-0.904-16.324-3.979-16.324-17.711c0-3.912,1.396-7.111,3.689-9.617c-0.369-0.906-1.6-4.551,0.35-9.484
	c0,0,3.01-0.963,9.855,3.674c2.859-0.795,5.924-1.191,8.973-1.207c3.043,0.016,6.109,0.412,8.971,1.207
	c6.842-4.637,9.846-3.674,9.846-3.674c1.955,4.934,0.725,8.578,0.357,9.484c2.297,2.506,3.684,5.705,3.684,9.617
	c0,13.766-8.379,16.795-16.363,17.684c1.287,1.105,2.434,3.293,2.434,6.637c0,4.791-0.045,8.656-0.045,9.83
	c0,0.959,0.646,2.074,2.465,1.723c14.229-4.748,24.486-18.17,24.486-33.998C71.674,16.045,55.627,0,35.834,0z"/>
</svg>
